# Blender v2.76 (sub 0) OBJ File: 'mur.blend'
# www.blender.org
mtllib mur.mtl
o Mur_Cube
v 0.500000 0.000000 -0.125000
v 0.500000 0.000000 0.125000
v -0.500000 0.000000 0.125000
v -0.500000 0.000000 -0.125000
v 0.500000 6.000000 -0.125000
v 0.499999 6.000000 0.125000
v -0.500000 6.000000 0.125000
v -0.500000 6.000000 -0.125000
vt 0.000000 0.666667
vt 0.333333 0.666667
vt 0.333333 1.000000
vt 0.000000 1.000000
vt 1.000000 0.000000
vt 1.000000 1.000000
vt 0.000000 0.000000
vt 0.666667 0.333333
vt 0.333333 0.333333
vt 0.333333 0.000000
vt 0.666667 0.000000
vt 0.000000 0.333333
vt 1.000000 0.333333
vt 0.666667 0.666667
vn 0.000000 -1.000000 0.000000
vn 0.000000 1.000000 0.000000
vn 1.000000 0.000000 0.000000
vn -0.000000 -0.000000 1.000000
vn -1.000000 -0.000000 -0.000000
vn 0.000000 0.000000 -1.000000
usemtl Material
s off
f 1/1/1 2/2/1 3/3/1 4/4/1
f 5/5/2 8/6/2 7/4/2 6/7/2
f 1/8/3 5/9/3 6/10/3 2/11/3
f 2/12/4 6/7/4 7/10/4 3/9/4
f 3/13/5 7/8/5 8/11/5 4/5/5
f 5/9/6 1/8/6 4/14/6 8/2/6
