# Blender v2.76 (sub 0) OBJ File: 'poteau.blend'
# www.blender.org
mtllib poteau.mtl
o Poteau_Cylinder
v 0.000000 -4.000000 -1.000000
v 0.000000 4.000000 -1.000000
v 0.195090 -4.000000 -0.980785
v 0.195090 4.000000 -0.980785
v 0.382683 -4.000000 -0.923880
v 0.382683 4.000000 -0.923880
v 0.555570 -4.000000 -0.831470
v 0.555570 4.000000 -0.831470
v 0.707107 -4.000000 -0.707107
v 0.707107 4.000000 -0.707107
v 0.831470 -4.000000 -0.555570
v 0.831470 4.000000 -0.555570
v 0.923880 -4.000000 -0.382683
v 0.923880 4.000000 -0.382683
v 0.980785 -4.000000 -0.195090
v 0.980785 4.000000 -0.195090
v 1.000000 -4.000000 -0.000000
v 1.000000 4.000000 -0.000000
v 0.980785 -4.000000 0.195090
v 0.980785 4.000000 0.195090
v 0.923880 -4.000000 0.382683
v 0.923880 4.000000 0.382683
v 0.831470 -4.000000 0.555570
v 0.831470 4.000000 0.555570
v 0.707107 -4.000000 0.707107
v 0.707107 4.000000 0.707107
v 0.555570 -4.000000 0.831470
v 0.555570 4.000000 0.831470
v 0.382683 -4.000000 0.923880
v 0.382683 4.000000 0.923880
v 0.195090 -4.000000 0.980785
v 0.195090 4.000000 0.980785
v -0.000000 -4.000000 1.000000
v -0.000000 4.000000 1.000000
v -0.195091 -4.000000 0.980785
v -0.195091 4.000000 0.980785
v -0.382684 -4.000000 0.923879
v -0.382684 4.000000 0.923879
v -0.555571 -4.000000 0.831469
v -0.555571 4.000000 0.831469
v -0.707107 -4.000000 0.707106
v -0.707107 4.000000 0.707106
v -0.831470 -4.000000 0.555570
v -0.831470 4.000000 0.555570
v -0.923880 -4.000000 0.382683
v -0.923880 4.000000 0.382683
v -0.980785 -4.000000 0.195089
v -0.980785 4.000000 0.195089
v -1.000000 -4.000000 -0.000001
v -1.000000 4.000000 -0.000001
v -0.980785 -4.000000 -0.195091
v -0.980785 4.000000 -0.195091
v -0.923879 -4.000000 -0.382684
v -0.923879 4.000000 -0.382684
v -0.831469 -4.000000 -0.555571
v -0.831469 4.000000 -0.555571
v -0.707106 -4.000000 -0.707108
v -0.707106 4.000000 -0.707108
v -0.555569 -4.000000 -0.831470
v -0.555569 4.000000 -0.831470
v -0.382682 -4.000000 -0.923880
v -0.382682 4.000000 -0.923880
v -0.195089 -4.000000 -0.980786
v -0.195089 4.000000 -0.980786
vt 0.088582 1.000000
vt 0.088582 0.000000
vt 0.114308 0.000000
vt 0.114308 1.000000
vt 0.139540 0.000000
vt 0.139540 1.000000
vt 0.163308 0.000000
vt 0.163308 1.000000
vt 0.184699 0.000000
vt 0.184699 1.000000
vt 0.202890 0.000000
vt 0.202890 1.000000
vt 0.738796 0.000000
vt 0.738796 1.000000
vt 0.717405 1.000000
vt 0.717405 0.000000
vt 0.693637 1.000000
vt 0.693637 0.000000
vt 0.668405 1.000000
vt 0.668405 0.000000
vt 0.642679 1.000000
vt 0.642679 0.000000
vt 0.617447 1.000000
vt 0.617447 0.000000
vt 0.593679 1.000000
vt 0.593679 0.000000
vt 0.572288 1.000000
vt 0.572288 0.000000
vt 0.224281 0.000000
vt 0.224281 1.000000
vt 0.248049 0.000000
vt 0.248049 1.000000
vt 0.273281 0.000000
vt 0.273281 1.000000
vt 0.299007 0.000000
vt 0.299007 1.000000
vt 0.324239 0.000000
vt 0.324239 1.000000
vt 0.348007 0.000000
vt 0.348007 1.000000
vt 0.369398 0.000000
vt 0.369398 1.000000
vt 0.387589 0.000000
vt 0.387589 1.000000
vt 0.550898 1.000000
vt 0.550898 0.000000
vt 0.527130 1.000000
vt 0.527130 0.000000
vt 0.501898 1.000000
vt 0.501898 0.000000
vt 0.476171 1.000000
vt 0.476171 0.000000
vt 0.450939 1.000000
vt 0.450939 0.000000
vt 0.427171 1.000000
vt 0.427171 0.000000
vt 0.405781 1.000000
vt 0.405781 0.000000
vt 0.000000 1.000000
vt 0.000000 0.000000
vt 0.018191 0.000000
vt 0.018191 1.000000
vt 0.039582 0.000000
vt 0.039582 1.000000
vt 0.856535 0.497592
vt 0.831303 0.492812
vt 0.807535 0.483434
vt 0.786144 0.469821
vt 0.767953 0.452494
vt 0.753660 0.432119
vt 0.743815 0.409480
vt 0.738796 0.385447
vt 0.738796 0.360942
vt 0.743815 0.336909
vt 0.753660 0.314270
vt 0.767953 0.293895
vt 0.786144 0.276568
vt 0.807535 0.262954
vt 0.831303 0.253577
vt 0.856535 0.248796
vt 0.882261 0.248796
vt 0.907493 0.253577
vt 0.931261 0.262954
vt 0.952652 0.276568
vt 0.970843 0.293895
vt 0.985136 0.314270
vt 0.994981 0.336909
vt 1.000000 0.360942
vt 1.000000 0.385446
vt 0.994981 0.409480
vt 0.985136 0.432119
vt 0.970843 0.452493
vt 0.952652 0.469821
vt 0.931261 0.483434
vt 0.907493 0.492812
vt 0.882261 0.497592
vt 0.063350 1.000000
vt 0.063350 0.000000
vt 0.807535 0.234638
vt 0.786144 0.221024
vt 0.767953 0.203697
vt 0.753660 0.183323
vt 0.743815 0.160684
vt 0.738796 0.136650
vt 0.738796 0.112146
vt 0.743815 0.088113
vt 0.753660 0.065474
vt 0.767953 0.045099
vt 0.786144 0.027772
vt 0.807535 0.014158
vt 0.831303 0.004781
vt 0.856535 0.000000
vt 0.882261 0.000000
vt 0.907493 0.004781
vt 0.931261 0.014158
vt 0.952652 0.027772
vt 0.970843 0.045099
vt 0.985136 0.065473
vt 0.994981 0.088112
vt 1.000000 0.112146
vt 1.000000 0.136650
vt 0.994981 0.160684
vt 0.985136 0.183323
vt 0.970843 0.203697
vt 0.952652 0.221024
vt 0.931261 0.234638
vt 0.907493 0.244016
vt 0.831303 0.244016
vn 0.098000 0.000000 -0.995200
vn 0.290300 0.000000 -0.956900
vn 0.471400 0.000000 -0.881900
vn 0.634400 0.000000 -0.773000
vn 0.773000 0.000000 -0.634400
vn 0.881900 0.000000 -0.471400
vn 0.956900 0.000000 -0.290300
vn 0.995200 0.000000 -0.098000
vn 0.995200 0.000000 0.098000
vn 0.956900 0.000000 0.290300
vn 0.881900 0.000000 0.471400
vn 0.773000 0.000000 0.634400
vn 0.634400 0.000000 0.773000
vn 0.471400 0.000000 0.881900
vn 0.290300 0.000000 0.956900
vn 0.098000 0.000000 0.995200
vn -0.098000 0.000000 0.995200
vn -0.290300 0.000000 0.956900
vn -0.471400 0.000000 0.881900
vn -0.634400 0.000000 0.773000
vn -0.773000 0.000000 0.634400
vn -0.881900 0.000000 0.471400
vn -0.956900 0.000000 0.290300
vn -0.995200 0.000000 0.098000
vn -0.995200 0.000000 -0.098000
vn -0.956900 0.000000 -0.290300
vn -0.881900 0.000000 -0.471400
vn -0.773000 0.000000 -0.634400
vn -0.634400 0.000000 -0.773000
vn -0.471400 0.000000 -0.881900
vn 0.000000 1.000000 0.000000
vn -0.098000 0.000000 -0.995200
vn -0.290300 0.000000 -0.956900
vn 0.000000 -1.000000 -0.000000
usemtl Material
s off
f 1/1/1 2/2/1 4/3/1 3/4/1
f 3/4/2 4/3/2 6/5/2 5/6/2
f 5/6/3 6/5/3 8/7/3 7/8/3
f 7/8/4 8/7/4 10/9/4 9/10/4
f 9/10/5 10/9/5 12/11/5 11/12/5
f 11/13/6 12/14/6 14/15/6 13/16/6
f 13/16/7 14/15/7 16/17/7 15/18/7
f 15/18/8 16/17/8 18/19/8 17/20/8
f 17/20/9 18/19/9 20/21/9 19/22/9
f 19/22/10 20/21/10 22/23/10 21/24/10
f 21/24/11 22/23/11 24/25/11 23/26/11
f 23/26/12 24/25/12 26/27/12 25/28/12
f 25/12/13 26/11/13 28/29/13 27/30/13
f 27/30/14 28/29/14 30/31/14 29/32/14
f 29/32/15 30/31/15 32/33/15 31/34/15
f 31/34/16 32/33/16 34/35/16 33/36/16
f 33/36/17 34/35/17 36/37/17 35/38/17
f 35/38/18 36/37/18 38/39/18 37/40/18
f 37/40/19 38/39/19 40/41/19 39/42/19
f 39/42/20 40/41/20 42/43/20 41/44/20
f 41/28/21 42/27/21 44/45/21 43/46/21
f 43/46/22 44/45/22 46/47/22 45/48/22
f 45/48/23 46/47/23 48/49/23 47/50/23
f 47/50/24 48/49/24 50/51/24 49/52/24
f 49/52/25 50/51/25 52/53/25 51/54/25
f 51/54/26 52/53/26 54/55/26 53/56/26
f 53/56/27 54/55/27 56/57/27 55/58/27
f 55/58/28 56/57/28 58/44/28 57/43/28
f 57/59/29 58/60/29 60/61/29 59/62/29
f 59/62/30 60/61/30 62/63/30 61/64/30
f 4/65/31 2/66/31 64/67/31 62/68/31 60/69/31 58/70/31 56/71/31 54/72/31 52/73/31 50/74/31 48/75/31 46/76/31 44/77/31 42/78/31 40/79/31 38/80/31 36/81/31 34/82/31 32/83/31 30/84/31 28/85/31 26/86/31 24/87/31 22/88/31 20/89/31 18/90/31 16/91/31 14/92/31 12/93/31 10/94/31 8/95/31 6/96/31
f 63/97/32 64/98/32 2/2/32 1/1/32
f 61/64/33 62/63/33 64/98/33 63/97/33
f 1/99/34 3/100/34 5/101/34 7/102/34 9/103/34 11/104/34 13/105/34 15/106/34 17/107/34 19/108/34 21/109/34 23/110/34 25/111/34 27/112/34 29/113/34 31/114/34 33/115/34 35/116/34 37/117/34 39/118/34 41/119/34 43/120/34 45/121/34 47/122/34 49/123/34 51/124/34 53/125/34 55/126/34 57/127/34 59/81/34 61/80/34 63/128/34
