# Blender v2.76 (sub 0) OBJ File: 'fleche.blend'
# www.blender.org
mtllib fleche.mtl
o Arrow_Cube
v 1.658960 -0.053634 -0.500000
v 1.658960 -0.053634 0.500000
v -1.658961 -0.053634 0.500000
v -1.658960 -0.053634 -0.500000
v 1.658961 0.053634 -0.499999
v 1.658959 0.053634 0.500000
v -1.658961 0.053634 0.500000
v -1.658960 0.053634 -0.500000
v -1.677454 -0.053634 0.999999
v -1.677453 -0.053634 -1.000000
v -1.677454 0.053634 0.999999
v -1.677454 0.053634 -0.999999
v -3.823422 -0.000000 -0.000001
v -1.461359 -0.146366 1.282299
vt 0.000000 0.220641
vt 0.155168 0.000000
vt 0.395075 0.142706
vt 0.239908 0.363347
vt 0.629164 0.000000
vt 0.869071 0.142706
vt 0.713904 0.363347
vt 0.473996 0.220641
vt 0.571429 0.737231
vt 0.285714 0.737231
vt 0.285714 0.474463
vt 0.571428 0.474463
vt 0.000000 0.737231
vt 0.000000 0.474463
vt 0.594947 0.737231
vt 0.594947 1.000000
vt 0.452090 1.000000
vt 0.452090 0.737231
vt 0.857143 0.474463
vt 0.857143 0.737231
vt 0.947992 0.033181
vt 0.637657 0.474463
vt 1.000000 0.474463
vt 1.000000 0.737231
vt 0.473996 0.033181
vt 0.163661 0.474463
vt 0.947992 0.346121
vt 0.000000 0.897944
vt 0.226045 0.737231
vt 0.226045 0.952048
vt 0.452090 0.952048
vt 0.226045 0.791335
vt 0.473996 0.346122
vn 0.000000 -1.000000 -0.000000
vn 0.000000 1.000000 0.000000
vn 1.000000 0.000000 0.000000
vn -0.000000 -0.000000 1.000000
vn 0.999300 0.000000 0.037000
vn 0.000000 0.000000 -1.000000
vn 0.999300 0.000000 -0.037000
vn -0.025000 0.999700 -0.000000
vn -0.422400 0.000000 0.906400
vn -0.422400 -0.000000 -0.906400
vn -0.025000 -0.999700 -0.000000
usemtl Material.001
s off
f 1/1/1 2/2/1 3/3/1 4/4/1
f 5/5/2 8/6/2 7/7/2 6/8/2
f 1/9/3 5/10/3 6/11/3 2/12/3
f 2/13/4 6/14/4 7/11/4 3/10/4
f 3/15/5 7/16/5 11/17/5 9/18/5
f 5/12/6 1/19/6 4/20/6 8/9/6
f 7/7/2 8/6/2 12/21/2 11/22/2
f 8/20/7 4/19/7 10/23/7 12/24/7
f 4/4/1 3/3/1 9/25/1 10/26/1
f 11/22/8 12/21/8 13/27/8
f 9/28/9 11/29/9 13/30/9
f 12/31/10 10/32/10 13/18/10
f 10/26/11 9/25/11 13/33/11
